<svg width="18" height="19" viewBox="0 0 18 19" fill="none" xmlns="http://www.w3.org/2000/svg">
<path d="M14.8359 4.5L11.6484 7.6875L11.9297 7.99219C12.4219 8.48438 12.5156 9.21094 12.1875 9.79688L9.21094 15.1641C9.07031 15.3984 8.8125 15.5391 8.55469 15.5391C8.34375 15.5391 8.15625 15.4688 8.01562 15.3281L3.21094 10.5234C3.07031 10.3828 3 10.1953 3 9.98438C3 9.72656 3.14062 9.46875 3.375 9.32812L8.74219 6.35156C9.32812 6.02344 10.0547 6.11719 10.5469 6.60938L10.8516 6.89062L14.0391 3.72656C14.25 3.49219 14.6016 3.49219 14.8359 3.72656C15.0469 3.9375 15.0469 4.28906 14.8359 4.5ZM10.5703 10.3828L8.15625 7.96875L4.35938 10.0781L5.10938 10.8281L6.375 10.4297C6.53906 10.3594 6.67969 10.5 6.63281 10.6641L6.21094 11.9297L8.46094 14.1797L10.5703 10.3828Z" fill="#18191B"/>
</svg>
