<svg width="18" height="18" viewBox="0 0 18 18" fill="none" xmlns="http://www.w3.org/2000/svg">
<path d="M13.7812 5.28125L10.0312 9.03125L13.75 12.75C14.0625 13.0312 14.0625 13.5 13.75 13.7812C13.4688 14.0938 13 14.0938 12.7188 13.7812L8.96875 10.0625L5.25 13.7812C4.96875 14.0938 4.5 14.0938 4.21875 13.7812C3.90625 13.5 3.90625 13.0312 4.21875 12.7188L7.9375 9L4.21875 5.28125C3.90625 5 3.90625 4.53125 4.21875 4.21875C4.5 3.9375 4.96875 3.9375 5.28125 4.21875L9 7.96875L12.7188 4.25C13 3.9375 13.4688 3.9375 13.7812 4.25C14.0625 4.53125 14.0625 5 13.7812 5.28125Z" fill="#18191B"/>
</svg>
